<svg width="101" height="47" viewBox="0 0 101 47" fill="none" xmlns="http://www.w3.org/2000/svg">
<path d="M32.7436 34.8195L40.1002 35.3613V41.6449C40.1002 41.6449 26.3545 55.183 6.3252 39.154H13.1506L13.907 32.9795C13.907 32.9795 21.6963 40.885 32.7436 34.8195Z" fill="#0D2C40"/>
<path d="M7.83041 5.79053C7.83041 5.79053 -7.11855 19.7086 5.12137 37.5285L11.9538 38.1793L12.6046 31.5721C12.6046 31.5721 6.32461 21.2813 14.4376 13.1577L7.16195 12.5948L7.83041 5.79053Z" fill="#0D2C40"/>
<path d="M9.45618 4.81558C9.45618 4.81558 28.1028 -7.20621 42.2777 7.30648L35.9942 6.87374L35.3433 13.9102C35.3433 13.9102 28.1943 5.24832 16.2815 11.9646L9.02344 11.6409L9.45618 4.81558Z" fill="#0D2C40"/>
<path d="M36.9688 15.6487L37.4015 8.39062L44.0087 9.0415L63.9395 31.245H57.1177L56.4668 37.4195L36.9688 15.6487Z" fill="#0D2C40"/>
<path d="M34.5869 33.6303L59.8232 5.79053L66.5395 6.4414L66.1067 13.2668L41.3032 40.8849L41.4088 33.7358L34.5869 33.6303Z" fill="#02D35F"/>
<path d="M60.7979 4.7874L67.7851 5.35735L67.2995 12.0209C67.2995 12.0209 77.615 5.43827 85.1721 12.4255L92.5604 12.7492L93.2254 6.26154C93.2254 6.26154 81.6785 -6.75591 60.7979 4.7874Z" fill="#02D35F"/>
<path d="M86.2273 13.4813L93.6156 13.914L94.1856 7.3877C94.1856 7.3877 110.352 25.3975 92.8838 40.8848L85.7383 40.3887L86.3892 33.0004C86.3892 33.0004 96.0572 22.1748 86.2273 13.4813Z" fill="#02D35F"/>
<path d="M65.6738 32.9795L58.2116 32.3286L57.793 38.9112C57.793 38.9112 71.0356 54.1839 91.0191 41.9967L84.1938 41.4443L84.8446 34.3762C84.8446 34.3762 76.1511 41.3458 65.6738 32.9795Z" fill="#02D35F"/>
<path d="M75.117 21.6006V24.0634C75.0957 24.1592 75.085 24.2572 75.0853 24.3554C75.085 24.4547 75.0957 24.5538 75.117 24.6509V28.6195H73.2734V21.583L75.117 21.6006Z" fill="#0D2C40"/>
<path d="M76.7387 21.601C76.1315 21.6796 75.5643 21.9466 75.1168 22.3644C74.8082 22.6038 74.5528 22.9048 74.3669 23.2482C74.1809 23.5916 74.0685 23.97 74.0367 24.3592C74.0639 24.766 74.1737 25.163 74.3594 25.5259C74.5451 25.8889 74.8028 26.2101 75.1168 26.4702C75.5088 26.844 76.0162 27.0735 76.5557 27.1211C78.2691 27.1633 79.1135 25.6891 79.1135 24.3628C79.1135 23.0364 78.0651 21.5236 76.7387 21.601ZM76.1793 25.5801C75.9244 25.5688 75.6809 25.471 75.489 25.3028C75.2972 25.1346 75.1684 24.906 75.1238 24.6548C75.1025 24.5577 75.0919 24.4586 75.0922 24.3592C75.0919 24.261 75.1025 24.1631 75.1238 24.0672C75.1684 23.816 75.2972 23.5874 75.489 23.4192C75.6809 23.251 75.9244 23.1532 76.1793 23.1419C76.483 23.1702 76.7653 23.3109 76.9707 23.5364C77.1762 23.7619 77.2901 24.056 77.2901 24.361C77.2901 24.6661 77.1762 24.9601 76.9707 25.1856C76.7653 25.4111 76.483 25.5518 76.1793 25.5801ZM82.7795 23.7013C82.5121 23.6169 81.5235 23.4621 81.5235 23.0892C81.5235 22.8781 81.826 22.8534 81.9738 22.8605C82.396 22.8605 83.0293 23.3636 83.3811 23.2686C83.6942 23.1877 83.9686 22.3785 84.0847 22.1041C83.1961 21.5969 82.161 21.4082 81.1505 21.5693C80.9009 21.6169 80.6645 21.718 80.4577 21.8657C80.2509 22.0134 80.0785 22.2041 79.9525 22.4248C79.8264 22.6454 79.7497 22.8908 79.7275 23.144C79.7054 23.3972 79.7384 23.6521 79.8242 23.8913C80.271 25.0488 81.6431 24.595 82.3362 25.2986C82.6212 25.5941 82.0336 25.7278 81.8401 25.7208C81.2451 25.6325 80.6762 25.4165 80.1725 25.0875C80.0001 25.3338 79.4688 25.9213 79.5322 26.2274C79.5955 26.5335 80.2956 26.7622 80.5876 26.8537C81.5657 27.1703 83.075 27.2899 83.8103 26.3998C84.7286 25.3303 83.9264 24.0743 82.7795 23.7013ZM68.4638 19.6519C67.6984 19.6519 66.9501 19.8788 66.3137 20.3041C65.6773 20.7293 65.1813 21.3337 64.8883 22.0409C64.5954 22.7481 64.5188 23.5262 64.6681 24.2769C64.8174 25.0276 65.186 25.7172 65.7273 26.2585C66.2685 26.7997 66.9581 27.1683 67.7088 27.3176C68.4595 27.4669 69.2376 27.3903 69.9448 27.0974C70.652 26.8045 71.2564 26.3084 71.6816 25.672C72.1069 25.0356 72.3339 24.2873 72.3339 23.5219C72.3339 22.4955 71.9261 21.5111 71.2003 20.7854C70.4746 20.0596 69.4902 19.6519 68.4638 19.6519ZM68.4638 25.4956C68.0715 25.4949 67.6882 25.378 67.3624 25.1595C67.0365 24.9411 66.7827 24.6309 66.6331 24.2683C66.4834 23.9056 66.4446 23.5068 66.5216 23.1221C66.5986 22.7374 66.7878 22.3842 67.0655 22.107C67.3431 21.8299 67.6967 21.6412 68.0815 21.5649C68.4663 21.4887 68.8651 21.5282 69.2275 21.6785C69.5899 21.8287 69.8996 22.0831 70.1174 22.4093C70.3353 22.7356 70.4516 23.1191 70.4516 23.5114C70.4516 23.7725 70.4 24.0311 70.2999 24.2723C70.1997 24.5135 70.0529 24.7326 69.8679 24.9169C69.6829 25.1013 69.4634 25.2473 69.2218 25.3466C68.9802 25.4459 68.7215 25.4966 68.4603 25.4956H68.4638Z" fill="#0D2C40"/>
<path d="M31.8105 21.5131H29.6045L31.9371 27.6137H32.9433V25.0138L31.8105 21.5131ZM34.0797 21.5237H36.2857L33.9495 27.6243H32.9433V25.0243L34.0797 21.5237ZM21.101 20.6547C20.3601 20.1402 19.5005 19.823 18.603 19.7329C17.4139 19.6203 16.1403 19.7646 15.0391 19.7646V27.6067H15.0918C15.3029 27.6313 15.514 27.6524 15.7286 27.6665C16.5742 27.7366 17.4245 27.7295 18.2688 27.6454C19.8837 27.466 20.9215 26.9418 21.5583 26.2592C22.1226 25.624 22.4408 24.8078 22.4555 23.9583V23.7718V23.6733C22.4414 22.5581 22.1213 21.4357 21.101 20.6547ZM19.3067 25.4465C18.6417 25.8194 17.8325 25.728 17.1007 25.728V21.6433C17.8783 21.6433 18.7543 21.5413 19.4369 22.0198C20.5697 22.8184 20.5275 24.7569 19.2961 25.4465H19.3067ZM28.637 26.0587C28.4576 25.9074 28.2289 25.6506 27.9861 25.6084C27.5991 25.5556 27.1171 26.0763 26.6879 26.1185C26.0195 26.1853 25.5375 25.7245 25.2806 25.1686H29.3477C29.3477 24.0427 29.2527 22.8571 28.2922 22.0831C26.5085 20.6265 23.5813 21.7031 23.2541 24.0005C22.9023 26.4211 24.8057 27.9832 27.1242 27.6806C27.6991 27.5994 28.2387 27.3552 28.6792 26.9769C28.8376 26.8362 29.0698 26.6427 28.9537 26.414C28.8707 26.2772 28.7634 26.1568 28.637 26.0587ZM27.3388 24.0639H25.263C25.3079 23.8213 25.4362 23.6022 25.6258 23.4444C25.8154 23.2867 26.0543 23.2003 26.3009 23.2003C26.5476 23.2003 26.7864 23.2867 26.976 23.4444C27.1656 23.6022 27.294 23.8213 27.3388 24.0639Z" fill="#02D35F"/>
</svg>
