<svg width="100" height="100" viewBox="0 0 100 100" fill="none" xmlns="http://www.w3.org/2000/svg">
<path d="M52.9978 0C51.7734 0.00484912 50.5995 0.486548 49.7264 1.3423L49.68 1.37791L19.002 19.0557L49.5943 49.5548V49.5762L86.3793 86.2492L93.3899 73.6593L68.1011 13.1418L56.3156 1.39215C55.8825 0.955496 55.367 0.608622 54.7987 0.371522C54.2305 0.134423 53.6209 0.0117858 53.0049 0.0106815L52.9978 0Z" fill="#66C3FA"/>
<path d="M19.1088 18.917L1.38765 49.4695L1.35194 49.5158C0.920495 49.948 0.578961 50.4609 0.346961 51.0251C0.114962 51.5893 -0.00293141 52.1937 5.5362e-05 52.8034C0.00304213 53.4132 0.12685 54.0164 0.364365 54.5783C0.601881 55.1402 0.948423 55.6498 1.38408 56.0778L16.0731 70.722L73.5149 93.2492L86.5004 86.0571L86.1433 85.701H86.054L50.0439 49.7401H50.0011L19.1088 18.917Z" fill="#215896"/>
<path d="M18.9014 18.96L50.2008 50.1961H50.2472L86.2716 86.157L99.9821 83.5507L99.9999 43.0929L85.5216 28.9471C81.9118 25.7352 77.388 23.7241 72.579 23.1934V23.0367L18.9014 18.96Z" fill="#235997"/>
<path d="M19.1299 19.1338L50.4436 50.3521V50.3984L86.4858 86.3308L83.8644 99.9995H43.2937L29.1118 85.5582C25.8924 81.9572 23.8778 77.4461 23.3477 72.6514H23.1905L19.1299 19.1338Z" fill="#58B6F0"/>
</svg>
