<svg width="68" height="100" viewBox="0 0 68 100" fill="none" xmlns="http://www.w3.org/2000/svg">
<path d="M50.6667 66.6663C59.8714 66.6663 67.3333 59.2044 67.3333 49.9997C67.3333 40.7949 59.8714 33.333 50.6667 33.333C41.4619 33.333 34 40.7949 34 49.9997C34 59.2044 41.4619 66.6663 50.6667 66.6663Z" fill="#19BCFE"/>
<path fill-rule="evenodd" clip-rule="evenodd" d="M17.3337 100C26.5384 100 34.0003 92.5384 34.0003 83.3337C34.0003 80.8209 34.0003 75.2654 34.0003 66.667C26.513 66.667 20.9574 66.667 17.3337 66.667C8.12891 66.667 0.666992 74.1289 0.666992 83.3337C0.666992 92.5384 8.12891 100 17.3337 100Z" fill="#09CF83"/>
<path fill-rule="evenodd" clip-rule="evenodd" d="M17.3337 66.6663H34.0003V33.333C25.9575 33.333 20.4019 33.333 17.3337 33.333C8.12891 33.333 0.666992 40.7949 0.666992 49.9997C0.666992 59.2044 8.12891 66.6663 17.3337 66.6663Z" fill="#A259FF"/>
<path fill-rule="evenodd" clip-rule="evenodd" d="M17.3337 33.3333H34.0003V0C25.9575 0 20.4019 0 17.3337 0C8.12891 0 0.666992 7.46192 0.666992 16.6667C0.666992 25.8714 8.12891 33.3333 17.3337 33.3333Z" fill="#F24E1E"/>
<path fill-rule="evenodd" clip-rule="evenodd" d="M50.6667 33.3333H34V0H50.6667C59.8714 0 67.3333 7.46192 67.3333 16.6667C67.3333 25.8714 59.8714 33.3333 50.6667 33.3333Z" fill="#FF7262"/>
</svg>
