<svg width="74" height="101" viewBox="0 0 74 101" fill="none" xmlns="http://www.w3.org/2000/svg">
<path d="M0.388672 81.6193L0.998867 80.7686L29.7858 26.1596L29.8468 25.5817L17.1583 1.74812C16.926 1.31228 16.5626 0.960523 16.1194 0.742601C15.6762 0.524679 15.1757 0.45163 14.6887 0.533788C14.2017 0.615946 13.7529 0.849151 13.4057 1.20041C13.0585 1.55167 12.8306 2.0032 12.7541 2.49112L0.388672 81.6193Z" fill="#FFC24A"/>
<path d="M0.746094 80.9741L1.20554 80.0768L29.6945 26.0349L17.0383 2.10799C16.8296 1.69189 16.4917 1.35461 16.0752 1.14668C15.6587 0.93876 15.1861 0.871388 14.728 0.954662C14.27 1.03794 13.8513 1.26737 13.5347 1.6086C13.218 1.94982 13.0204 2.38447 12.9716 2.84741L0.746094 80.9741Z" fill="#FFA712"/>
<path d="M39.0951 43.6085L48.5424 33.9171L39.0916 15.8948C38.8835 15.5069 38.5742 15.1827 38.1966 14.9567C37.8189 14.7307 37.387 14.6113 36.9469 14.6113C36.5068 14.6113 36.0749 14.7307 35.6972 14.9567C35.3195 15.1827 35.0102 15.5069 34.8022 15.8948L29.752 25.5215V26.3435L39.0951 43.6085Z" fill="#F4BD62"/>
<path d="M38.9269 43.2133L48.1121 33.8091L38.9269 16.2929C38.7765 15.9137 38.5197 15.5862 38.1874 15.3497C37.8551 15.1132 37.4615 14.9779 37.054 14.96C36.6465 14.9422 36.2426 15.0426 35.8909 15.2492C35.5392 15.4557 35.2547 15.7596 35.0719 16.1242L29.9965 25.9197L29.8457 26.4186L38.9269 43.2133Z" fill="#FFA50E"/>
<path d="M0.394531 81.6238L0.670915 81.3439L1.67235 80.9382L38.4995 44.2475L38.9661 42.9768L29.7809 25.4678L0.394531 81.6238Z" fill="#F6820C"/>
<path d="M40.274 100.126L73.6123 81.5368L64.086 22.9184C64.0177 22.5052 63.8369 22.1188 63.5634 21.8016C63.2899 21.4844 62.9343 21.2487 62.5356 21.1204C62.1369 20.992 61.7106 20.976 61.3034 21.0742C60.8962 21.1723 60.5239 21.3807 60.2274 21.6765L0.388672 81.6193L33.5295 100.123C34.5598 100.698 35.7201 100.999 36.9 100.999C38.0798 100.999 39.2401 100.698 40.2704 100.123" fill="#FDE068"/>
<path d="M73.3057 81.3829L63.8584 23.206C63.8417 22.8108 63.7081 22.4294 63.4746 22.11C63.2411 21.7907 62.9181 21.5479 62.5465 21.4122C62.1748 21.2766 61.7713 21.2542 61.387 21.348C61.0027 21.4417 60.6548 21.6474 60.3874 21.9389L0.746094 81.5085L33.5208 99.8144C34.543 100.385 35.6939 100.684 36.8644 100.684C38.0348 100.684 39.1857 100.385 40.2079 99.8144L73.3057 81.3829Z" fill="#FCCA3F"/>
<path d="M40.274 99.5672C39.2437 100.142 38.0834 100.444 36.9036 100.444C35.7237 100.444 34.5634 100.142 33.5331 99.5672L0.661465 81.3403L0.388672 81.6202L33.5295 100.124C34.5598 100.698 35.7201 101 36.9 101C38.0798 101 39.2401 100.698 40.2704 100.124L73.6123 81.5377L73.5297 81.0352L40.274 99.5672Z" fill="#EEAB37"/>
</svg>
