<svg width="100" height="100" viewBox="0 0 100 100" fill="none" xmlns="http://www.w3.org/2000/svg">
<path d="M44.3458 3.8916C43.0875 4.17077 40.4792 5.09994 38.5708 5.98744C29.5417 10.3624 24.05 20.6541 25.4458 30.5666C26.1251 35.6673 28.4257 40.4146 32.0083 44.1083C36.7083 48.9999 42.2958 51.3249 49.2333 51.3749C56.075 51.3749 61.7083 48.9999 66.4542 44.1124C80.7917 29.1666 71.0625 4.63744 50.3958 3.61244C48.3458 3.52077 45.6458 3.61244 44.3458 3.8916ZM57.375 13.2083C61.1458 14.6041 65.5667 18.9333 66.45 22.1458C67.3375 25.4499 66.8667 29.7291 65.2417 32.7583C61.6583 39.3208 53.5083 44.1166 48.6208 42.5333C46.3875 41.7874 43.4125 38.3916 41.7792 34.8041C38.25 26.9333 37.0833 20.1374 38.7125 16.9708C41.1792 12.1791 50.025 10.4083 57.3792 13.2041L57.375 13.2083ZM17.1125 49.4166C5.28749 53.2333 -1.69168 64.4083 0.354158 76.4166C2.35416 88.3333 13.575 97.2249 25.4917 96.2916C33.9625 95.6874 41.1792 91.1249 44.9958 83.9583C47.0917 79.9583 47.8333 76.9749 47.8333 72.2291C47.8333 63.7083 43.7875 56.3999 36.4292 51.8374C31.2625 48.5791 22.8875 47.5541 17.1125 49.4208V49.4166ZM27.2625 56.9124C38.6667 58.7749 44.8542 68.3166 40.3875 77.2541C38.5708 80.8374 34.7542 84.4708 30.8458 86.3333C28.1917 87.5416 27.3542 87.7291 24.8875 87.5416C20.6042 87.2624 18.6958 85.5416 16.3667 79.7208C13.575 72.8791 12.4083 64.6874 13.8083 62.0333C15.5292 58.8208 18.4625 57.1916 23.8625 56.4916C24.1417 56.4916 25.6292 56.6791 27.2625 56.9124ZM68.2708 49.6499C54.3542 54.5374 48.1167 69.9916 54.6333 83.3041C56.4458 87.0291 60.7292 91.4041 64.55 93.4083C74.3667 98.5749 84.9833 97.0374 92.8 89.2624C105.508 76.6958 100.717 55.6083 83.725 49.6499C79.3958 48.1166 72.6 48.1166 68.2708 49.6499ZM82.5167 57.8916C87.45 59.4749 92.3833 64.0791 93.5 68.2249C94.2458 70.9708 93.825 74.9291 92.5708 77.5333C90.2875 82.2374 84.6125 86.4708 79.025 87.5874C71.4833 89.0791 67.6208 83.9124 65.9 70.1291C64.8708 61.7999 67.15 57.9833 73.8583 56.9624C76.65 56.5416 79.0667 56.7708 82.5167 57.8916Z" fill="black"/>
</svg>
