<svg width="100" height="100" viewBox="0 0 100 100" fill="none" xmlns="http://www.w3.org/2000/svg">
<path d="M98.1077 45.5469L54.453 1.89059C53.8558 1.29134 53.1462 0.815864 52.3649 0.491433C51.5836 0.167003 50.746 0 49.9 0C49.054 0 48.2164 0.167003 47.4351 0.491433C46.6538 0.815864 45.9442 1.29134 45.3471 1.89059L36.2805 10.9575L47.7789 22.4564C49.1348 21.9949 50.5931 21.9236 51.9875 22.2507C53.3819 22.5777 54.6565 23.2898 55.6659 24.306C56.6753 25.3221 57.379 26.6014 57.6968 27.9981C58.0146 29.3947 57.9337 30.8525 57.4633 32.2054L68.5332 43.2757C70.1879 42.7072 71.9874 42.7229 73.6319 43.3202C75.2764 43.9175 76.6665 45.0603 77.5708 46.5582C78.475 48.0561 78.8387 49.8186 78.6012 51.5521C78.3637 53.2856 77.5394 54.8853 76.2656 56.0848C74.9918 57.2843 73.3455 58.011 71.601 58.144C69.8564 58.2769 68.119 57.808 66.6782 56.8154C65.2373 55.8229 64.1802 54.3665 63.6827 52.689C63.1853 51.0116 63.2777 49.2143 63.9445 47.5967L53.6067 37.2584V64.4592C55.1727 65.2352 56.4256 66.5242 57.1567 68.1117C57.8878 69.6992 58.053 71.4892 57.6247 73.1837C57.1964 74.8782 56.2005 76.3747 54.803 77.4241C53.4054 78.4735 51.6905 79.0124 49.9439 78.951C48.1973 78.8897 46.5244 78.2317 45.2039 77.0867C43.8835 75.9418 42.9951 74.379 42.6869 72.6586C42.3786 70.9383 42.6691 69.1643 43.5098 67.632C44.3506 66.0998 45.6909 64.9019 47.3075 64.2378V36.7871C46.3723 36.4033 45.5222 35.8383 44.8062 35.1246C44.0902 34.4109 43.5226 33.5626 43.1359 32.6285C42.7492 31.6944 42.5511 30.6931 42.5531 29.6821C42.5551 28.6712 42.757 27.6706 43.1474 26.7381L31.8275 15.4107L1.89232 45.3576C1.29255 45.9549 0.816637 46.6647 0.491902 47.4463C0.167166 48.228 0 49.0661 0 49.9125C0 50.7589 0.167166 51.597 0.491902 52.3787C0.816637 53.1603 1.29255 53.8702 1.89232 54.4674L45.547 98.1094C46.1442 98.7087 46.8538 99.1841 47.6351 99.5086C48.4164 99.833 49.254 100 50.1 100C50.946 100 51.7836 99.833 52.5649 99.5086C53.3462 99.1841 54.0558 98.7087 54.6529 98.1094L98.1077 54.6424C98.7075 54.0451 99.1834 53.3353 99.5081 52.5537C99.8328 51.772 100 50.9339 100 50.0875C100 49.2411 99.8328 48.403 99.5081 47.6213C99.1834 46.8397 98.7075 46.1298 98.1077 45.5326" fill="#DD4C35"/>
<path d="M36.2801 10.958L47.7785 22.4568C49.1344 21.9954 50.5927 21.9241 51.9872 22.2511C53.3816 22.5782 54.6562 23.2903 55.6656 24.3065C56.675 25.3226 57.3787 26.6019 57.6965 27.9985C58.0142 29.3952 57.9333 30.853 57.4629 32.2059L68.5328 43.2762C70.1875 42.7077 71.987 42.7234 73.6315 43.3207C75.276 43.918 76.6662 45.0608 77.5704 46.5587C78.4746 48.0566 78.8383 49.8191 78.6008 51.5526C78.3633 53.2861 77.539 54.8858 76.2652 56.0853C74.9915 57.2847 73.3452 58.0115 71.6006 58.1445C69.8561 58.2774 68.1186 57.8085 66.6778 56.8159C65.237 55.8233 64.1798 54.367 63.6824 52.6895C63.185 51.012 63.2774 49.2148 63.9442 47.5971L53.6063 37.2589V64.4597C55.1723 65.2357 56.4252 66.5247 57.1563 68.1122C57.8874 69.6997 58.0526 71.4897 57.6243 73.1842C57.1961 74.8786 56.2002 76.3752 54.8026 77.4246C53.405 78.474 51.6901 79.0129 49.9435 78.9515C48.1969 78.8901 46.5241 78.2322 45.2036 77.0872C43.8831 75.9423 42.9948 74.3795 42.6865 72.6591C42.3783 70.9388 42.6687 69.1647 43.5095 67.6325C44.3502 66.1003 45.6905 64.9024 47.3072 64.2383V36.7875C46.3719 36.4038 45.5218 35.8388 44.8059 35.1251C44.0899 34.4114 43.5222 33.563 43.1355 32.629C42.7488 31.6949 42.5508 30.6936 42.5528 29.6826C42.5547 28.6717 42.7567 27.6711 43.147 26.7386L31.8271 15.4111" fill="white"/>
</svg>
