<svg width="100" height="100" viewBox="0 0 100 100" fill="none" xmlns="http://www.w3.org/2000/svg">
<g clip-path="url(#clip0_803_11823)">
<path d="M49.9993 4.16641C37.9721 4.04419 26.3884 8.70227 17.7941 17.1169C9.19971 25.5316 4.29793 37.0143 4.16602 49.0414C4.21236 58.5463 7.26995 67.7919 12.8996 75.4504C18.5293 83.1088 26.4413 88.786 35.4993 91.6664C37.791 92.0831 38.6243 90.7081 38.6243 89.4997C38.6243 88.2914 38.6243 85.6247 38.6243 81.8747C25.8744 84.5831 23.166 75.8747 23.166 75.8747C22.3173 73.141 20.5128 70.8041 18.0827 69.2914C13.916 66.5414 18.416 66.5831 18.416 66.5831C19.8562 66.7756 21.2342 67.2917 22.4465 68.0927C23.6588 68.8937 24.674 69.9588 25.416 71.2081C26.7091 73.4502 28.8307 75.0951 31.3244 75.7887C33.818 76.4822 36.4843 76.169 38.7493 74.9164C38.9823 72.6347 40.0156 70.5091 41.666 68.9164C31.4993 67.7914 20.8327 63.9581 20.8327 46.7497C20.7418 42.2609 22.4004 37.9127 25.4577 34.6247C24.0653 30.7709 24.2297 26.526 25.916 22.7914C25.916 22.7914 29.791 21.5831 38.416 27.3747C45.9239 25.3741 53.8248 25.3741 61.3327 27.3747C70.0827 21.5831 73.8327 22.7914 73.8327 22.7914C75.519 26.526 75.6834 30.7709 74.291 34.6247C77.4194 37.8524 79.1679 42.1715 79.166 46.6664C79.166 63.9164 68.416 67.7081 58.3327 68.8331C59.4368 69.905 60.2896 71.2083 60.83 72.6492C61.3703 74.0901 61.5847 75.6328 61.4577 77.1664V89.4581C61.4577 89.4581 62.291 92.0831 64.5827 91.6247C73.615 88.7264 81.5004 83.0479 87.1127 75.4003C92.7249 67.7527 95.7769 58.5272 95.8327 49.0414C95.7008 37.0143 90.799 25.5316 82.2046 17.1169C73.6103 8.70227 62.0266 4.04419 49.9993 4.16641Z" fill="#231F20"/>
</g>
<defs>
<clipPath id="clip0_803_11823">
<rect width="100" height="100" fill="white"/>
</clipPath>
</defs>
</svg>
