<svg width="74" height="100" viewBox="0 0 74 100" fill="none" xmlns="http://www.w3.org/2000/svg">
<g clip-path="url(#clip0_803_11813)">
<path d="M23.8636 77.3047C23.8636 77.3047 20.0485 79.523 26.5788 80.2736C34.49 81.176 38.5334 81.0466 47.2517 79.3968C47.2517 79.3968 49.5438 80.8338 52.7449 82.0784C33.2008 90.4534 8.51279 81.5933 23.8636 77.3047Z" fill="#5382A1"/>
<path d="M21.4749 66.375C21.4749 66.375 17.1958 69.542 23.7309 70.2178C32.182 71.0895 38.856 71.1608 50.4046 68.9374C50.4046 68.9374 52.0019 70.5566 54.5136 71.442C30.8836 78.3506 4.56411 71.9868 21.4749 66.375Z" fill="#5382A1"/>
<path d="M41.6084 47.8364C46.424 53.3799 40.3431 58.3683 40.3431 58.3683C40.3431 58.3683 52.5709 52.057 46.9552 44.1537C41.7104 36.7833 37.6883 33.1213 59.4623 20.4951C59.4623 20.4951 25.2843 29.0299 41.6084 47.8364Z" fill="#E76F00"/>
<path d="M67.4558 85.3882C67.4558 85.3882 70.2791 87.7141 64.3465 89.5135C53.0654 92.9305 17.3933 93.9623 7.48379 89.6497C3.92157 88.1002 10.6017 85.95 12.7031 85.4988C14.8946 85.0237 16.1469 85.1122 16.1469 85.1122C12.1853 82.3219 -9.45898 90.5911 5.15266 92.9593C45.0007 99.4205 77.7919 90.0498 67.4558 85.3882Z" fill="#5382A1"/>
<path d="M25.6968 55.0524C25.6968 55.0524 7.55173 59.3615 19.2712 60.9263C24.2195 61.5887 34.0838 61.4388 43.2722 60.669C50.7815 60.0357 58.3216 58.6891 58.3216 58.6891C58.3216 58.6891 55.6738 59.8229 53.7581 61.1307C35.3321 65.976 -0.263478 63.7219 9.98404 58.7658C18.6504 54.5772 25.6968 55.0524 25.6968 55.0524Z" fill="#5382A1"/>
<path d="M58.2476 73.2437C76.9784 63.512 68.318 54.1598 62.2732 55.4198C60.7915 55.7281 60.1309 55.9953 60.1309 55.9953C60.1309 55.9953 60.6809 55.1338 61.7315 54.7609C73.6901 50.5573 82.8871 67.1589 57.8711 73.7342C57.8711 73.7345 58.1609 73.4754 58.2476 73.2437Z" fill="#5382A1"/>
<path d="M46.955 0.107422C46.955 0.107422 57.3285 10.4828 37.1163 26.4371C20.9081 39.2352 33.4203 46.5323 37.1095 54.8696C27.6486 46.3349 20.7055 38.8217 25.3635 31.8291C32.2003 21.5646 51.1405 16.588 46.955 0.107422Z" fill="#E76F00"/>
<path d="M27.5385 99.6142C45.5178 100.765 73.127 98.9757 73.7809 90.4697C73.7809 90.4697 72.524 93.6943 58.922 96.2551C43.5763 99.1425 24.6495 98.8054 13.4238 96.9549C13.4241 96.9546 15.7219 98.8565 27.5385 99.6142Z" fill="#5382A1"/>
</g>
<defs>
<clipPath id="clip0_803_11813">
<rect width="74" height="100" fill="white"/>
</clipPath>
</defs>
</svg>
