<svg width="84" height="84" viewBox="0 0 84 84" fill="none" xmlns="http://www.w3.org/2000/svg">
<path d="M2.41602 42.0003C2.41602 23.3406 2.41602 14.0107 8.21285 8.21382C14.0097 2.41699 23.3396 2.41699 41.9993 2.41699C60.6589 2.41699 69.9889 2.41699 75.786 8.21382C81.5827 14.0107 81.5827 23.3406 81.5827 42.0003C81.5827 60.6599 81.5827 69.9899 75.786 75.787C69.9889 81.5837 60.6589 81.5837 41.9993 81.5837C23.3396 81.5837 14.0097 81.5837 8.21285 75.787C2.41602 69.9899 2.41602 60.6599 2.41602 42.0003Z" stroke="#141B34" stroke-width="3"/>
<path d="M16.9993 48.25L23.2493 29.5L31.0618 48.25M16.9993 48.25L14.916 54.5M16.9993 48.25H31.0618M31.0618 48.25L33.666 54.5" stroke="#141B34" stroke-width="3" stroke-linecap="round" stroke-linejoin="round"/>
<path d="M44.082 42V32.4167C44.082 31.6411 44.082 31.2534 44.1841 30.9395C44.3899 30.3053 44.8874 29.808 45.5216 29.602C45.8354 29.5 46.2233 29.5 46.9987 29.5H52.4154C55.867 29.5 58.6654 32.2982 58.6654 35.75C58.6654 39.2017 55.867 42 52.4154 42H44.082ZM44.082 42V54.5" stroke="#141B34" stroke-width="3" stroke-linecap="round" stroke-linejoin="round"/>
<path d="M69.082 29.5V54.5" stroke="#141B34" stroke-width="3" stroke-linecap="round" stroke-linejoin="round"/>
</svg>
