<svg width="103" height="101" viewBox="0 0 103 101" fill="none" xmlns="http://www.w3.org/2000/svg">
<path d="M60.1467 99.9527C60.1564 99.9575 60.1661 99.9615 60.1761 99.9655C62.1506 100.798 64.3437 101.043 66.4334 100.567C86.9251 95.9031 102.227 77.5668 102.227 55.6547V31.5503C100.426 31.9423 98.5585 32.384 96.7413 32.8842H96.7244C87.7948 35.3354 79.9826 39.1373 85.6433 44.3989C96.6411 54.6127 76.3049 58.5725 62.4313 61.5576C40.7531 66.21 21.4929 83.5026 60.1467 99.9527Z" fill="#2855A3"/>
<path d="M0.505859 46.0658V55.6175C0.505859 59.5412 4.34384 62.2987 8.06976 61.069C12.4937 59.6085 17.6123 58.3284 23.518 57.28C73.4863 48.4257 65.832 44.7736 62.005 42.3809C58.178 39.9794 51.5745 34.3514 72.0602 30.2409C82.5826 28.1231 93.8048 26.9561 102.226 26.322V-0.000409418H46.5718C21.1303 -0.000409418 0.505859 20.6243 0.505859 46.0658Z" fill="#6DD0F6"/>
<path d="M96.7402 32.8843C98.9518 32.2518 102.226 31.5504 102.226 31.5504C100.425 31.9424 98.5574 32.3841 96.7402 32.8843Z" fill="#C4C2C1"/>
<path d="M60.1467 99.9531C44.0284 93.094 37.9803 86.0873 37.9785 79.9127C37.976 71.2797 49.7927 64.2706 62.4312 61.5581C73.5346 59.1694 88.7759 56.1554 88.7839 49.8125C88.7863 48.2293 87.8397 46.4386 85.6433 44.3994C84.3111 43.1609 83.7251 42.0034 83.7243 40.9253C83.7211 37.4232 89.8965 34.7587 96.7244 32.8846H96.7412C98.5584 32.3844 100.426 31.9428 102.227 31.5508V39.2965C95.49 41.7141 90.9715 45.0663 95.6487 49.4021C106.646 59.6158 86.3102 63.5757 72.4364 66.5608C52.9512 70.7466 35.417 85.1374 60.1467 99.9531Z" fill="#22427A"/>
</svg>
