<svg width="100" height="100" viewBox="0 0 100 100" fill="none" xmlns="http://www.w3.org/2000/svg">
<g clip-path="url(#clip0_803_11875)">
<path d="M21.0315 63.0162C21.0315 68.8099 16.3489 73.4924 10.5553 73.4924C4.76164 73.4924 0.0791016 68.8099 0.0791016 63.0162C0.0791016 57.2226 4.76164 52.54 10.5553 52.54H21.0315V63.0162ZM26.2696 63.0162C26.2696 57.2226 30.9521 52.54 36.7458 52.54C42.5394 52.54 47.222 57.2226 47.222 63.0162V89.2067C47.222 95.0004 42.5394 99.6829 36.7458 99.6829C30.9521 99.6829 26.2696 95.0004 26.2696 89.2067V63.0162Z" fill="#E01E5A"/>
<path d="M36.746 20.9524C30.9524 20.9524 26.2698 16.2698 26.2698 10.4762C26.2698 4.68254 30.9524 0 36.746 0C42.5397 0 47.2222 4.68254 47.2222 10.4762V20.9524H36.746ZM36.746 26.2698C42.5397 26.2698 47.2222 30.9524 47.2222 36.746C47.2222 42.5397 42.5397 47.2222 36.746 47.2222H10.4762C4.68254 47.2222 0 42.5397 0 36.746C0 30.9524 4.68254 26.2698 10.4762 26.2698H36.746Z" fill="#36C5F0"/>
<path d="M78.7305 36.746C78.7305 30.9524 83.4131 26.2698 89.2067 26.2698C95.0004 26.2698 99.6829 30.9524 99.6829 36.746C99.6829 42.5397 95.0004 47.2222 89.2067 47.2222H78.7305V36.746ZM73.4924 36.746C73.4924 42.5397 68.8099 47.2222 63.0162 47.2222C57.2226 47.2222 52.54 42.5397 52.54 36.746V10.4762C52.54 4.68254 57.2226 0 63.0162 0C68.8099 0 73.4924 4.68254 73.4924 10.4762V36.746Z" fill="#2EB67D"/>
<path d="M63.0162 78.7305C68.8099 78.7305 73.4924 83.4131 73.4924 89.2067C73.4924 95.0004 68.8099 99.6829 63.0162 99.6829C57.2226 99.6829 52.54 95.0004 52.54 89.2067V78.7305H63.0162ZM63.0162 73.4924C57.2226 73.4924 52.54 68.8099 52.54 63.0162C52.54 57.2226 57.2226 52.54 63.0162 52.54H89.2861C95.0797 52.54 99.7623 57.2226 99.7623 63.0162C99.7623 68.8099 95.0797 73.4924 89.2861 73.4924H63.0162Z" fill="#ECB22E"/>
</g>
<defs>
<clipPath id="clip0_803_11875">
<rect width="100" height="100" fill="white"/>
</clipPath>
</defs>
</svg>
