<svg width="100" height="100" viewBox="0 0 100 100" fill="none" xmlns="http://www.w3.org/2000/svg">
<g clip-path="url(#clip0_803_11880)">
<path d="M90.2344 0H9.76562C4.37222 0 0 4.37222 0 9.76562V90.2344C0 95.6278 4.37222 100 9.76562 100H90.2344C95.6278 100 100 95.6278 100 90.2344V9.76562C100 4.37222 95.6278 0 90.2344 0Z" fill="url(#paint0_linear_803_11880)"/>
<path d="M82.3125 13H61.1875C58.5987 13 56.5 15.0987 56.5 17.6875V52.0625C56.5 54.6513 58.5987 56.75 61.1875 56.75H82.3125C84.9013 56.75 87 54.6513 87 52.0625V17.6875C87 15.0987 84.9013 13 82.3125 13Z" fill="white"/>
<path d="M38.8125 13H17.6875C15.0987 13 13 15.0987 13 17.6875V77.0625C13 79.6513 15.0987 81.75 17.6875 81.75H38.8125C41.4013 81.75 43.5 79.6513 43.5 77.0625V17.6875C43.5 15.0987 41.4013 13 38.8125 13Z" fill="white"/>
</g>
<defs>
<linearGradient id="paint0_linear_803_11880" x1="12800" y1="0" x2="12800" y2="25600" gradientUnits="userSpaceOnUse">
<stop stop-color="#0091E6"/>
<stop offset="1" stop-color="#0079BF"/>
</linearGradient>
<clipPath id="clip0_803_11880">
<rect width="100" height="100" fill="white"/>
</clipPath>
</defs>
</svg>
